<?xml version="1.0" encoding="utf-8"?>
<!-- Generator: Adobe Illustrator 26.1.0, SVG Export Plug-In . SVG Version: 6.00 Build 0)  -->
<svg version="1.1" id="Layer_1" xmlns="http://www.w3.org/2000/svg" xmlns:xlink="http://www.w3.org/1999/xlink" x="0px" y="0px"
	 viewBox="0 0 145.9 77.1" style="enable-background:new 0 0 145.9 77.1;" xml:space="preserve">
<style type="text/css">
	.st0{fill:#101111;}
	.st1{fill:#292A2D;}
	.st2{fill:#F0AD1C;}
	.st3{fill:#66CCDB;}
	.st4{opacity:0.5;fill:#FFFFFF;}
	.st5{fill:#D1E2E2;}
	.st6{fill:#FFFFFF;}
	.st7{fill:#00519B;}
	.st8{opacity:0.5;fill:url(#SVGID_1_);}
	.st9{fill:#E30006;}
	.st10{fill:#C3D1D1;}
	.st11{fill:url(#SVGID_00000170994757759251932290000001323216723045770402_);}
	.st12{fill:url(#SVGID_00000012430223817632922540000016316370272755897279_);}
	.st13{fill:url(#SVGID_00000074418008934952098400000011924350384178164642_);}
	.st14{opacity:0.5;fill:url(#SVGID_00000040573188974541390610000007749659510256808351_);}
	.st15{opacity:0.5;fill:url(#SVGID_00000076580336467885444220000011971257569725589900_);}
	.st16{opacity:0.5;fill:url(#SVGID_00000151501536564052909270000014983743113895251867_);}
	.st17{fill-rule:evenodd;clip-rule:evenodd;fill:#B3B3B3;}
</style>
<g>
	<path class="st0" d="M16.5,56.7l21-0.4l34.6-2.8l28.4,1.6l22.1-0.4c0,0,4.8-11.4,2-13.1c-2.8-1.7-16.2-3.8-21.4-2.7
		c-5.2,1.2-62.5-0.6-72.5,0s-18.2,5.4-19.1,8.7C10.7,51,16.5,56.7,16.5,56.7z"/>
	<g>
		<path class="st1" d="M111.4,42.4c-5.4,0-9.7,4.4-9.7,9.7c0,5.4,4.4,9.7,9.7,9.7c5.4,0,9.7-4.4,9.7-9.7
			C121.1,46.8,116.7,42.4,111.4,42.4z"/>
		
			<ellipse transform="matrix(0.9997 -2.494530e-02 2.494530e-02 0.9997 -1.2922 0.6888)" class="st1" cx="27" cy="52.1" rx="9.7" ry="9.7"/>
		<path class="st0" d="M27,44.4c-4.2,0-7.7,3.4-7.7,7.7c0,4.2,3.4,7.7,7.7,7.7c4.2,0,7.7-3.4,7.7-7.7C34.7,47.9,31.2,44.4,27,44.4z"
			/>
		<path class="st1" d="M14,39.6c0,0-0.8,12.1-3.3,14.4c-2.5,2.3-8.6-0.5-8.6-0.5S1.7,43,6.5,40.3C11.3,37.6,14,39.6,14,39.6z"/>
		<path class="st0" d="M111.4,44.4c-4.2,0-7.7,3.4-7.7,7.7c0,4.2,3.4,7.7,7.7,7.7c4.2,0,7.7-3.4,7.7-7.7
			C119.1,47.9,115.6,44.4,111.4,44.4z"/>
		<path class="st2" d="M15.1,39.6c0,0-5.1,0.5-6.2,1.6C7.8,42.5,7.8,44,7.8,44l4.2,0.2C12,44.2,16,41.9,15.1,39.6z"/>
		<path class="st3" d="M46.1,41.2h55.6l16-13c0,0-8.5-5.7-17.9-5.8c-9.4-0.2-31.8,0-31.8,0s-15.8,3-24.6,10.2
			c-8.8,7.2-5.8,8.7-5.8,8.7H46.1z"/>
		<g>
			<polygon class="st4" points="61.7,40.7 59.3,40.7 69,21.8 71.4,21.8 			"/>
			<polygon class="st4" points="57.4,40.7 56.2,40.7 66.2,21.5 67.4,21.5 			"/>
			<polygon class="st4" points="83.5,40.7 81,40.7 90.8,21.9 93.2,21.9 			"/>
			<polygon class="st4" points="119.1,40.7 85.8,40.7 95.9,21.1 110.5,23.8 			"/>
			<polygon class="st4" points="79.2,40.7 78,40.7 88.2,21.1 89.4,21.1 			"/>
		</g>
		<g>
			<path class="st5" d="M26.1,45.3v4.3c-0.4,0.1-0.8,0.4-1.1,0.7l-3.9-1.7C22.2,46.8,24,45.6,26.1,45.3z"/>
			<path class="st5" d="M24.6,53.3l-3,3c-0.9-1.2-1.5-2.6-1.5-4.2c0-0.7,0.1-1.4,0.3-2l3.9,1.7c0,0.1,0,0.2,0,0.3
				C24.3,52.6,24.4,53,24.6,53.3z"/>
			<path class="st5" d="M33.8,52.1c0,1.6-0.5,3-1.4,4.2l-3-3c0.2-0.4,0.3-0.7,0.3-1.2c0-0.1,0-0.2,0-0.3l3.9-1.7
				C33.7,50.8,33.8,51.4,33.8,52.1z"/>
			<path class="st5" d="M32.8,48.6l-3.9,1.7c-0.3-0.3-0.7-0.5-1.1-0.7v-4.3C29.9,45.6,31.8,46.8,32.8,48.6z"/>
			<path class="st5" d="M31.2,57.5C30,58.4,28.5,59,27,59c-1.6,0-3-0.5-4.2-1.4l3-3c0.4,0.2,0.7,0.3,1.2,0.3c0.4,0,0.8-0.1,1.2-0.3
				L31.2,57.5z"/>
		</g>
		<path class="st5" d="M110.5,45.3v4.3c-0.4,0.1-0.8,0.4-1.1,0.7l-3.9-1.7C106.6,46.8,108.4,45.6,110.5,45.3z"/>
		<path class="st5" d="M109,53.3l-3,3c-0.9-1.2-1.5-2.6-1.5-4.2c0-0.7,0.1-1.4,0.3-2l3.9,1.7c0,0.1,0,0.2,0,0.3
			C108.7,52.6,108.8,53,109,53.3z"/>
		<path class="st5" d="M117.2,48.6l-3.9,1.7c-0.3-0.3-0.7-0.5-1.1-0.7v-4.3C114.3,45.6,116.1,46.8,117.2,48.6z"/>
		<path class="st5" d="M115.6,57.5c-1.2,0.9-2.6,1.5-4.2,1.5c-1.6,0-3-0.5-4.2-1.4l3-3c0.4,0.2,0.7,0.3,1.2,0.3
			c0.4,0,0.8-0.1,1.2-0.3L115.6,57.5z"/>
		<path class="st5" d="M118.2,52.1c0,1.6-0.5,3-1.4,4.2l-3-3c0.2-0.4,0.3-0.7,0.3-1.2c0-0.1,0-0.2,0-0.3l3.9-1.7
			C118.1,50.8,118.2,51.4,118.2,52.1z"/>
		<path class="st6" d="M9.1,50.7c0,0.9-0.7,1.5-1.5,1.5c-0.9,0-1.5-0.7-1.5-1.5c0-0.9,0.7-1.5,1.5-1.5C8.4,49.2,9.1,49.9,9.1,50.7z"
			/>
		<path class="st7" d="M143,44.9c0-2.8-1.9-2.9-1.9-2.9c-2,0-2.1-3.7-2.1-3.7c1.1-1.4,0.5-3.6,0.5-3.6v-3.2c0,0-8.8-1.4-23.4-6.9
			c-14.6-5.5-37.7-5.2-47-4.2c-9.3,1-20.4,8.2-25.2,10.1c-4.8,1.8-6.7,2-6.7,2s-26.7,3.7-30.5,5.9c-1.8,1.1-3.7,3.5-4,6.4
			c-0.2,0.6-0.3,1.2-0.5,1.7c-0.9,0.2-0.8,4.6-0.8,6.2c0,3.9,5.7,4,5.7,4h8.5l0.9,0c-0.6-1.4-1-3-1-4.6c0-6.3,5.1-11.4,11.4-11.4
			c6.3,0,11.4,5.1,11.4,11.4c0,1.5-0.3,2.9-0.8,4.2l63-1.2c-0.3-1-0.4-2-0.4-3c0-6.3,5.1-11.4,11.4-11.4c6.3,0,11.4,5.1,11.4,11.4
			c0,0.9-0.1,1.8-0.3,2.6l1,0c0,0,6.8-0.6,13.1-2C143.1,51.3,143,47.6,143,44.9z M9.6,52.3c-0.4,1-1.6,1.3-1.6,1.3s-3.2,0.2-4,0
			c-0.8-0.2-1.1-0.6-1.3-1.4c-0.2-0.8-0.2-2.3-0.2-2.3l7.8-0.7C10.2,49.1,10,51.3,9.6,52.3z M3.9,44.7c0,0,0.7-2.8,1.9-3.4
			c1.2-0.7,6.4-1,6.4-1S10.7,44.1,3.9,44.7z M43.7,33.5c10-5,17.2-11.2,39.5-11.2s30,6.7,30,6.7C112.5,34,43.7,33.5,43.7,33.5z"/>
		<linearGradient id="SVGID_1_" gradientUnits="userSpaceOnUse" x1="70.8766" y1="46.5354" x2="70.8766" y2="31.4612">
			<stop  offset="0" style="stop-color:#0D97D3"/>
			<stop  offset="1" style="stop-color:#000000"/>
		</linearGradient>
		<path class="st8" d="M87.5,34.5c0,0-52.9,1.8-61.3,2.9c-8.5,1.1-11.3,2.8-11.3,2.8c-6.1,5.3-12.4,5.1-12.4,5.1
			c-0.2,0.6-0.2,0.6-0.3,1.2l15.3-0.7c2-3.1,5.5-5.1,9.5-5.1c3.6,0,6.9,1.7,9,4.4l62.7-2.7c15.5-6.5,21.5-1.1,29.7,0
			c8.2,1.1,10.7-4.1,10.7-4.1c1.1-1.4,0.5-3.6,0.5-3.6v-3.2L87.5,34.5z M72.8,39.2h-1.7c-0.8,0-1.4-0.6-1.4-1.4
			c0-0.8,0.6-1.4,1.4-1.4h1.7c0.8,0,1.4,0.6,1.4,1.4C74.2,38.6,73.6,39.2,72.8,39.2z M100.6,38.3h-1.7c-0.8,0-1.4-0.6-1.4-1.4
			c0-0.8,0.6-1.4,1.4-1.4h1.7c0.8,0,1.4,0.6,1.4,1.4C102,37.7,101.4,38.3,100.6,38.3z"/>
		<path class="st1" d="M138.9,38.3c1.1-1.4,0.5-3.6,0.5-3.6v-0.1c-0.4,0-0.5,0-3.4,0c-3.5,0-2.5,1.3-2.5,1.3s1.1,2.6,2.4,2.6h3
			C138.9,38.3,138.9,38.3,138.9,38.3z"/>
		<path class="st9" d="M136.1,36.1L136.1,36.1c0,0.3,0.3,0.6,0.6,0.6h2.8c0.1-0.4,0.1-0.9,0-1.2h-2.8
			C136.4,35.5,136.1,35.8,136.1,36.1z"/>
		<path class="st5" d="M28.4,52.1c0,0.8-0.6,1.4-1.4,1.4s-1.4-0.6-1.4-1.4c0-0.8,0.6-1.4,1.4-1.4S28.4,51.4,28.4,52.1z"/>
		<path class="st10" d="M27.7,52.1c0,0.4-0.3,0.8-0.8,0.8s-0.8-0.3-0.8-0.8c0-0.4,0.3-0.8,0.8-0.8S27.7,51.7,27.7,52.1z"/>
		<g>
			<path class="st10" d="M26.1,49.6v-1.9c-1.2,0.2-2.2,0.9-2.8,1.8l1.8,0.8C25.3,50,25.7,49.8,26.1,49.6z"/>
			<path class="st10" d="M24.3,52.1c0-0.1,0-0.2,0-0.3l-1.8-0.8c-0.1,0.3-0.1,0.7-0.1,1.1c0,0.9,0.3,1.8,0.8,2.6l1.4-1.4
				C24.4,53,24.3,52.6,24.3,52.1z"/>
			<path class="st10" d="M29.6,52.1c0,0.4-0.1,0.8-0.3,1.2l1.4,1.4c0.5-0.7,0.8-1.6,0.8-2.5c0-0.4,0-0.7-0.1-1.1l-1.8,0.8
				C29.6,52,29.6,52,29.6,52.1z"/>
			<path class="st10" d="M28.9,50.3l1.8-0.8c-0.7-0.9-1.7-1.6-2.8-1.8v1.9C28.2,49.8,28.6,50,28.9,50.3z"/>
			<path class="st10" d="M27,54.8c-0.4,0-0.8-0.1-1.2-0.3l-1.4,1.4c0.7,0.5,1.6,0.8,2.5,0.8c0.9,0,1.8-0.3,2.6-0.8l-1.4-1.4
				C27.8,54.7,27.4,54.8,27,54.8z"/>
		</g>
		<path class="st5" d="M112.8,52.1c0,0.8-0.6,1.4-1.4,1.4s-1.4-0.6-1.4-1.4c0-0.8,0.6-1.4,1.4-1.4S112.8,51.4,112.8,52.1z"/>
		
			<linearGradient id="SVGID_00000174571631983437000610000002409630674421789323_" gradientUnits="userSpaceOnUse" x1="69.9724" y1="56.3404" x2="69.9724" y2="45.3428">
			<stop  offset="0" style="stop-color:#FFFFFF"/>
			<stop  offset="0.1102" style="stop-color:#DCE7EF"/>
			<stop  offset="0.3557" style="stop-color:#94B6CE"/>
			<stop  offset="0.5763" style="stop-color:#5B8EB4"/>
			<stop  offset="0.7639" style="stop-color:#3272A1"/>
			<stop  offset="0.9112" style="stop-color:#186095"/>
			<stop  offset="1" style="stop-color:#0F5A91"/>
		</linearGradient>
		<path style="fill:url(#SVGID_00000174571631983437000610000002409630674421789323_);" d="M102.4,45.3c-7,7-12.9,6.7-12.9,6.7
			l-51.1,0.1c0,1.5-0.3,2.9-0.8,4.2l63-1.2c-0.3-1-0.4-2-0.4-3C100.1,49.6,101,47.2,102.4,45.3L102.4,45.3z"/>
		
			<linearGradient id="SVGID_00000044890459987094632590000010290313291544431028_" gradientUnits="userSpaceOnUse" x1="132.7952" y1="54.7548" x2="132.7952" y2="44.0574">
			<stop  offset="0" style="stop-color:#FFFFFF"/>
			<stop  offset="0.1102" style="stop-color:#DCE7EF"/>
			<stop  offset="0.3557" style="stop-color:#94B6CE"/>
			<stop  offset="0.5763" style="stop-color:#5B8EB4"/>
			<stop  offset="0.7639" style="stop-color:#3272A1"/>
			<stop  offset="0.9112" style="stop-color:#186095"/>
			<stop  offset="1" style="stop-color:#0F5A91"/>
		</linearGradient>
		<path style="fill:url(#SVGID_00000044890459987094632590000010290313291544431028_);" d="M143,44.9c0-2.8-3.5,2.3-6.9,3.9
			c-4.3,1.9-12.5,2.6-12.5,2.6c0,1.6-0.3,2.9-0.9,3.4l1,0c0,0,6.8-0.6,13.1-2C143.1,51.3,143,47.6,143,44.9z"/>
		
			<linearGradient id="SVGID_00000076582308472791203650000004791081613553059770_" gradientUnits="userSpaceOnUse" x1="8.9596" y1="56.7484" x2="8.9596" y2="51.0414">
			<stop  offset="0" style="stop-color:#FFFFFF"/>
			<stop  offset="0.1102" style="stop-color:#DCE7EF"/>
			<stop  offset="0.3557" style="stop-color:#94B6CE"/>
			<stop  offset="0.5763" style="stop-color:#5B8EB4"/>
			<stop  offset="0.7639" style="stop-color:#3272A1"/>
			<stop  offset="0.9112" style="stop-color:#186095"/>
			<stop  offset="1" style="stop-color:#0F5A91"/>
		</linearGradient>
		<path style="fill:url(#SVGID_00000076582308472791203650000004791081613553059770_);" d="M15.7,56.7l0.9,0c-0.4-1-0.7-2.1-0.9-3.2
			c0,0,0,0,0,0C1.2,56.2,1.7,52.9,1.5,51c-0.1,0.6-0.1,1.2-0.1,1.7c0,3.9,5.7,4,5.7,4H15.7z"/>
		
			<linearGradient id="SVGID_00000049212360944603105040000014288491550931645624_" gradientUnits="userSpaceOnUse" x1="72.0375" y1="47.8639" x2="72.0375" y2="44.0052">
			<stop  offset="0" style="stop-color:#0D97D3"/>
			<stop  offset="1" style="stop-color:#000000"/>
		</linearGradient>
		<polygon style="opacity:0.5;fill:url(#SVGID_00000049212360944603105040000014288491550931645624_);" points="93.4,47 46.6,47.9 
			97.5,44 		"/>
		<polygon class="st7" points="77.7,33.9 75,33.9 78,20.9 79.7,20.9 		"/>
		<polygon class="st7" points="107.3,32.5 105.4,32.5 107.5,25.3 108.7,25.3 		"/>
		
			<linearGradient id="SVGID_00000172425703813265300000000010895225317979005312_" gradientUnits="userSpaceOnUse" x1="71.9574" y1="38.269" x2="71.9574" y2="37.4238">
			<stop  offset="0" style="stop-color:#0D97D3"/>
			<stop  offset="1" style="stop-color:#000000"/>
		</linearGradient>
		<path style="opacity:0.5;fill:url(#SVGID_00000172425703813265300000000010895225317979005312_);" d="M75.4,37.8
			c0,0.2-0.2,0.4-0.4,0.4h-6.1c-0.2,0-0.4-0.2-0.4-0.4l0,0c0-0.2,0.2-0.4,0.4-0.4H75C75.2,37.4,75.4,37.6,75.4,37.8L75.4,37.8z"/>
		
			<linearGradient id="SVGID_00000081634867890315768870000008238566947755606970_" gradientUnits="userSpaceOnUse" x1="99.7825" y1="37.3267" x2="99.7825" y2="36.4814">
			<stop  offset="0" style="stop-color:#0D97D3"/>
			<stop  offset="1" style="stop-color:#000000"/>
		</linearGradient>
		<path style="opacity:0.5;fill:url(#SVGID_00000081634867890315768870000008238566947755606970_);" d="M103.2,36.9
			c0,0.2-0.2,0.4-0.4,0.4h-6.1c-0.2,0-0.4-0.2-0.4-0.4l0,0c0-0.2,0.2-0.4,0.4-0.4h6.1C103,36.5,103.2,36.7,103.2,36.9L103.2,36.9z"
			/>
		<path class="st10" d="M112.1,52.1c0,0.4-0.3,0.8-0.8,0.8c-0.4,0-0.8-0.3-0.8-0.8c0-0.4,0.3-0.8,0.8-0.8
			C111.8,51.4,112.1,51.7,112.1,52.1z"/>
		<g>
			<path class="st10" d="M110.5,49.6v-1.9c-1.2,0.2-2.2,0.9-2.8,1.8l1.8,0.8C109.7,50,110.1,49.8,110.5,49.6z"/>
			<path class="st10" d="M108.7,52.1c0-0.1,0-0.2,0-0.3l-1.8-0.8c-0.1,0.3-0.1,0.7-0.1,1.1c0,0.9,0.3,1.8,0.8,2.6l1.4-1.4
				C108.8,53,108.7,52.6,108.7,52.1z"/>
			<path class="st10" d="M114,52.1c0,0.4-0.1,0.8-0.3,1.2l1.4,1.4c0.5-0.7,0.8-1.6,0.8-2.5c0-0.4,0-0.7-0.1-1.1l-1.8,0.8
				C114,52,114,52,114,52.1z"/>
			<path class="st10" d="M113.3,50.3l1.8-0.8c-0.7-0.9-1.7-1.6-2.8-1.8v1.9C112.6,49.8,113,50,113.3,50.3z"/>
			<path class="st10" d="M111.4,54.8c-0.4,0-0.8-0.1-1.2-0.3l-1.4,1.4c0.7,0.5,1.6,0.8,2.5,0.8c0.9,0,1.8-0.3,2.6-0.8l-1.4-1.4
				C112.2,54.7,111.8,54.8,111.4,54.8z"/>
		</g>
	</g>
</g>
<path class="st17" d="M73.6,61.9c39.3,0,71.2,0.6,71.2,1.4s-31.9,1.4-71.2,1.4S2.4,64,2.4,63.2S34.3,61.9,73.6,61.9z"/>
</svg>
