<svg id="Layer_1" data-name="Layer 1" xmlns="http://www.w3.org/2000/svg" viewBox="0 0 145.92 77.11"><defs><style>.cls-1{fill:#b3b3b3;}.cls-1,.cls-2{fill-rule:evenodd;}.cls-2{fill:#2e333d;}</style></defs><path class="cls-1" d="M73,63.44c38.4,0,69.54.59,69.54,1.32S111.36,66.08,73,66.08,3.42,65.49,3.42,64.76,34.55,63.44,73,63.44Z"/><path class="cls-2" d="M115.49,44A10.39,10.39,0,1,1,105.1,54.36,10.39,10.39,0,0,1,115.49,44Zm14.86,14.91c2.35-.2,5.35-.44,7.62-.87a6.62,6.62,0,0,0,3.12-1.15c1.52-1.59,1.35-6.53,1.32-9.07,0-.62-1.4-.62-1.44-1.26a62,62,0,0,0-1.49-11.83c-.74-3-2.23-5-3.37-7.37-1-2.08-3.44-8.79-6.92-12.63a2.75,2.75,0,0,1-.53-2c.05-1.69-.21-1.46-1.79-1.6-1.78-.15-4.8,0-8.86,0l-47.7.27c-2.24,0-4.36.21-6.3.36C53.32,12.5,40.52,21.51,31.4,27c-5.09,1.79-12.92,4.75-19.75,7.25A6.83,6.83,0,0,0,7.2,38.33a25.15,25.15,0,0,0-1.39,4.52,23.2,23.2,0,0,1-1,3.09c-.77.07-.8-.15-1,.35a6.74,6.74,0,0,0-.17,2.09,23.51,23.51,0,0,0,.34,6.26c.43,1.68.81,2.49,1.55,3.11a3.39,3.39,0,0,0,2,.86l3.27.12c2.2-.23,2.31.16,1.94-2.49a14.47,14.47,0,0,1-.13-1.88,13.51,13.51,0,0,1,27,0A13.72,13.72,0,0,1,39,58.18c-.76,2.57-.38,2.15,1.72,2.36l59.38-.07c2.16-.21,3.12.34,2.32-2.6a13,13,0,0,1-.46-3.51,13.51,13.51,0,1,1,26.79,2.41c-.26,1.46.13,2.23,1.57,2.11ZM75.22,28.36c.84-7.62,1-11,1.67-12.89A1.33,1.33,0,0,1,78,14.88l18.44-.12c1.18,0,1.89,0,1.94,1.6l.32,10.78c0,1.35.21,2-1.33,2.09-7.39.28-12.81.52-20.18.62-2.07,0-2.19.59-2-1.49Zm-30,2.58a12.87,12.87,0,0,0,.49-2.62c.11-2-3.18-2.17-5.23-2C46.82,21,57.73,15,65.88,15h6.46c.8,0,.84.38.67,1.12-.56,2.49-1.07,8.38-1.54,11.85-.24,1.67-.59,2.07-2.12,2.09-6,0-24.22,1.26-24.15.93Zm56.86-3.32c-.16-3.52-.33-7-.49-10.56a4.84,4.84,0,0,1,.22-1.44c.07-.3.59-.57,1-.58,4.11-.06,2.49,0,6.6-.1,1.11,0,8.22,1.39,10.5,3.4,3,2.68,6.21,6.14,6.93,7.54.62,1.2.34,2-1.19,2.1-7.35.27-14.12,1-21.48,1.13-2.07,0-2,.59-2.13-1.49ZM26.07,44A10.39,10.39,0,1,1,15.68,54.36,10.4,10.4,0,0,1,26.07,44Z"/></svg>