<svg id="Layer_1" data-name="Layer 1" xmlns="http://www.w3.org/2000/svg" viewBox="0 0 145.92 77.11"><defs><style>.cls-1{fill:#b3b3b3;}.cls-1,.cls-2{fill-rule:evenodd;}.cls-2{fill:#2e333d;}</style></defs><path class="cls-1" d="M73,63.91c37,0,67.07.53,67.07,1.18S110,66.27,73,66.27,5.89,65.74,5.89,65.09s30-1.18,67.07-1.18Z"/><path class="cls-2" d="M139,55l.3-.07c1.83-.31,2.64-.11,2.94-2.47.35-2.83.22-7.27.37-9,.1-1.2-.08-2.33-1.37-2.6-.72-.15-1.47-.3-1.49-.61A44.7,44.7,0,0,0,138,29.42a86.57,86.57,0,0,0-6.23-15.53c-1.64-3.19-1-3-5.2-3-15,0-30.83-.13-46.07.17-10.18.19-20.12.26-24.36,1.61-5.5,3-10.65,10.51-14.51,13.57-9.92,1.05-20.81,1.8-30.85,4.29-3.54.88-4.7,1-5.38,4.68C5,37.36,4.88,39.73,4.62,41c-.28,0-.46,0-.59,0-.53,0-.65.59-.67,1.2A69.82,69.82,0,0,0,3.48,52c.32,2.29,1.64,3,3.65,3h3.63c2.86,0,2.35-.26,2.55-3a14.84,14.84,0,0,1,29.6,0c.22,3-.39,3,2.65,3H104c3.46,0,2.78-.2,3.16-3.57a14.84,14.84,0,0,1,29.54.4c.14,1.7-.32,3.17,1.41,3.17ZM28.11,41.25A11.84,11.84,0,1,1,16.27,53.09,11.84,11.84,0,0,1,28.11,41.25Zm93.81,0a11.84,11.84,0,1,1-11.84,11.84,11.84,11.84,0,0,1,11.84-11.84Zm-68.64-13A7.84,7.84,0,0,0,53.91,26c.11-1.87-3.32-2-5.44-1.87A42.1,42.1,0,0,1,57,15.38c1.92-.65,13.11-1,16.73-1.08l4.66-.1c.84,0,1,.38.71,1-.42,2.31-1.16,7-1.66,10.26-.24,1.56-.61,2.46-2.2,2.43-6.29.34-22.05.82-22,.29Zm52.66-2.5c-.28-2.74-1.7-6.93-2.57-9.71-.33-1-.7-2.08-1.89-2-6,.17-11.38.06-17.27.23a1.34,1.34,0,0,0-1.15.54c-.67,1.73-.83,4.07-1.69,11.16-.24,1.94-.11,2.21,2,2.18,4.71,0,13.66,0,20.13-.14,1.94-.06,2.65.15,2.4-2.22Zm8.23.22c-1-2.18-2.61-6-4.12-9.38-.87-2-.9-2.59,1.38-2.63,4.51-.07,13.1,0,16.39.09a2.38,2.38,0,0,1,1.3.72c.91,1.73,1.79,3.48,4.35,10.57.7,1.94.35,2.65-1,2.62-3.1-.06-10.85,0-15.43,0a3,3,0,0,1-2.85-2Z"/></svg>