<svg id="Layer_1" data-name="Layer 1" xmlns="http://www.w3.org/2000/svg" viewBox="0 0 145.92 77.11"><defs><style>.cls-1{fill:#b3b3b3;}.cls-1,.cls-2{fill-rule:evenodd;}.cls-2{fill:#2e333d;}</style></defs><path class="cls-1" d="M73,59.26c37.87,0,68.57.59,68.57,1.32S110.83,61.91,73,61.91,4.39,61.32,4.39,60.58,35.09,59.26,73,59.26Z"/><path class="cls-2" d="M131.68,54.35c1.93-.16,4-.32,5.7-.57a6.6,6.6,0,0,0,3.12-1c1.52-1.42,1.35-5.84,1.32-8.11,0-.55-1.4-.55-1.44-1.13-.2-3.49-.44-6.5-.83-10.09-.15-1.49-1.39-2.7-3.33-3.31-5.91-1.85-14.61-3-17.41-3.84a13.66,13.66,0,0,1-4-2,115.58,115.58,0,0,0-11.72-6.42c-2.59-1.15-4.62-2.63-8.14-2.63-9.3,0-20-.64-28.67,2.12C58,20,50.39,24.78,42.52,28.5a228.13,228.13,0,0,0-29.76,5.34,7.43,7.43,0,0,0-5.44,4.08A47,47,0,0,0,5.3,43c-.76.06-.79.29-1,.74a9.69,9.69,0,0,0-.17,2.71c0,1,.09,2.4.17,3.33.17,1.94.5,3,1.49,3.77A4.32,4.32,0,0,0,8,54.32l2.65.08c2.94-.38,2.68.15,2.48-3.12,0-.48,0-1,0-1.41a13.51,13.51,0,1,1,27,0,19.58,19.58,0,0,1-.3,3.64C39.26,56.44,39,55.83,42,56L99.63,56c2.9-.36,2.63.12,2.27-3.26a26.57,26.57,0,0,1-.13-2.85,13.51,13.51,0,1,1,27,0c0,.69,0,1.38,0,2,0,2.89.43,2.64,2.88,2.44ZM88,29.23c.72-5.94,1-8.15,1.34-9.81.13-.72.26-1.11,1.15-1.13l2.06,0c1.48,0,8.64,4.71,11.5,7.68,1.66,1.71,2.33,4.13-1.32,4.3l-12.83.6c-2.06.09-2.13.26-1.9-1.6ZM57.08,32c-.27,0,.43-1.28.49-2.35.11-1.8-3.19-1.93-5.23-1.8A60.86,60.86,0,0,1,67.45,20,49,49,0,0,1,77.8,18.48l7.31-.23c.81,0,.78.33.68,1-.36,2.43-1.05,6.82-1.6,9.85-.27,1.49-.58,1.8-2.11,1.87L57.08,32Zm58.2,7.45a10.39,10.39,0,1,1-10.39,10.39,10.39,10.39,0,0,1,10.39-10.39Zm-88.67,0A10.39,10.39,0,1,1,16.22,49.87,10.39,10.39,0,0,1,26.61,39.48Z"/></svg>